<?xml version="1.0" encoding="UTF-8" standalone="no"?>
<!-- Created with Inkscape (http://www.inkscape.org/) -->

<svg
   width="128"
   height="128"
   viewBox="0 0 128 128"
   version="1.1"
   id="svg1"
   xml:space="preserve"
   inkscape:version="1.4 (86a8ad7, 2024-10-11)"
   sodipodi:docname="github_CodeNameTwister.svg"
   inkscape:export-filename="..\favoritedock\addons\script_splitter\assets\github_CodeNameTwister.png"
   inkscape:export-xdpi="96"
   inkscape:export-ydpi="96"
   xmlns:inkscape="http://www.inkscape.org/namespaces/inkscape"
   xmlns:sodipodi="http://sodipodi.sourceforge.net/DTD/sodipodi-0.dtd"
   xmlns:xlink="http://www.w3.org/1999/xlink"
   xmlns="http://www.w3.org/2000/svg"
   xmlns:svg="http://www.w3.org/2000/svg"><sodipodi:namedview
     id="namedview1"
     pagecolor="#505050"
     bordercolor="#eeeeee"
     borderopacity="1"
     inkscape:showpageshadow="0"
     inkscape:pageopacity="0"
     inkscape:pagecheckerboard="0"
     inkscape:deskcolor="#505050"
     inkscape:document-units="mm"
     inkscape:zoom="2.8284271"
     inkscape:cx="105.71246"
     inkscape:cy="123.56691"
     inkscape:window-width="1803"
     inkscape:window-height="1046"
     inkscape:window-x="106"
     inkscape:window-y="-11"
     inkscape:window-maximized="1"
     inkscape:current-layer="g1"
     showguides="true" /><defs
     id="defs1"><linearGradient
       id="linearGradient108"
       inkscape:collect="always"><stop
         style="stop-color:#09ff00;stop-opacity:1;"
         offset="0"
         id="stop108" /><stop
         style="stop-color:#ff9a00;stop-opacity:1;"
         offset="1"
         id="stop109" /></linearGradient><linearGradient
       id="linearGradient93"
       inkscape:collect="always"><stop
         style="stop-color:#09ff00;stop-opacity:1;"
         offset="0.47222224"
         id="stop93" /><stop
         style="stop-color:#ff9a00;stop-opacity:1;"
         offset="0.66346157"
         id="stop94" /></linearGradient><linearGradient
       id="linearGradient91"
       inkscape:collect="always"><stop
         style="stop-color:#09ff00;stop-opacity:1;"
         offset="0.47222224"
         id="stop91" /><stop
         style="stop-color:#ff9a00;stop-opacity:1;"
         offset="0.60897434"
         id="stop92" /></linearGradient><linearGradient
       id="linearGradient89"
       inkscape:collect="always"><stop
         style="stop-color:#09ff00;stop-opacity:1;"
         offset="0"
         id="stop89" /><stop
         style="stop-color:#ff9a00;stop-opacity:1;"
         offset="1"
         id="stop90" /></linearGradient><linearGradient
       id="linearGradient87"
       inkscape:collect="always"><stop
         style="stop-color:#09ff00;stop-opacity:1;"
         offset="0"
         id="stop87" /><stop
         style="stop-color:#ff9a00;stop-opacity:1;"
         offset="1"
         id="stop88" /></linearGradient><linearGradient
       id="swatch82"><stop
         style="stop-color:#ff9a00;stop-opacity:1;"
         offset="0"
         id="stop83" /></linearGradient><linearGradient
       id="linearGradient38"
       inkscape:collect="always"><stop
         style="stop-color:#000000;stop-opacity:1;"
         offset="0"
         id="stop38" /><stop
         style="stop-color:#000000;stop-opacity:0;"
         offset="1"
         id="stop39" /></linearGradient><linearGradient
       inkscape:collect="always"
       xlink:href="#linearGradient38"
       id="linearGradient40"
       x1="7.829648"
       y1="27.335835"
       x2="10.783243"
       y2="27.335835"
       gradientUnits="userSpaceOnUse" /><linearGradient
       inkscape:collect="always"
       xlink:href="#linearGradient38"
       id="linearGradient41"
       x1="4.5202918"
       y1="27.338934"
       x2="8.122942"
       y2="27.338934"
       gradientUnits="userSpaceOnUse" /><linearGradient
       inkscape:collect="always"
       xlink:href="#linearGradient38"
       id="linearGradient42"
       x1="10.489948"
       y1="28.656681"
       x2="11.81677"
       y2="28.656681"
       gradientUnits="userSpaceOnUse" /><linearGradient
       inkscape:collect="always"
       xlink:href="#linearGradient87"
       id="linearGradient88"
       x1="7.829648"
       y1="27.335835"
       x2="10.783243"
       y2="27.335835"
       gradientUnits="userSpaceOnUse" /><linearGradient
       inkscape:collect="always"
       xlink:href="#linearGradient89"
       id="linearGradient90"
       x1="4.5202918"
       y1="27.338934"
       x2="8.122942"
       y2="27.338934"
       gradientUnits="userSpaceOnUse" /><linearGradient
       inkscape:collect="always"
       xlink:href="#linearGradient91"
       id="linearGradient92"
       x1="16.933319"
       y1="14.550674"
       x2="16.933319"
       y2="48.332336"
       gradientUnits="userSpaceOnUse" /><linearGradient
       inkscape:collect="always"
       xlink:href="#linearGradient93"
       id="linearGradient94"
       x1="12.474482"
       y1="-3.6144948"
       x2="12.474482"
       y2="12.293705"
       gradientUnits="userSpaceOnUse" /><linearGradient
       inkscape:collect="always"
       xlink:href="#linearGradient108"
       id="linearGradient109"
       x1="10.489948"
       y1="28.656681"
       x2="11.81677"
       y2="28.656681"
       gradientUnits="userSpaceOnUse" /></defs><g
     inkscape:label="Capa 1"
     inkscape:groupmode="layer"
     id="layer1"><g
       id="g1"
       transform="matrix(3.7816382,0,0,3.8686542,0.02127703,-2.123924)"><path
         id="path1"
         style="display:inline;fill:#478cbf;fill-opacity:1;stroke:#212532;stroke-width:1.25;stroke-linecap:butt;stroke-linejoin:bevel;stroke-dasharray:none;stroke-opacity:1"
         d="M 15.611518,1.1744034 C 5.6544913,1.1722699 5.4308915,1.1747232 4.9523594,1.2952764 3.3544035,1.6978591 2.5214083,2.8265011 2.1907255,3.5205057 2.0368715,3.8433651 1.8738842,4.260279 1.8281064,4.4471992 1.7597754,4.7262118 1.7446118,6.9659467 1.7446118,16.959745 v 12.173227 l 0.1427176,0.494172 c 0.4127228,1.43136 1.5631656,2.5598 2.991244,2.933963 0.4349592,0.113912 0.8391766,0.118353 12.0106076,0.121359 11.228281,0.0033 11.573787,-8.1e-5 12.027112,-0.116019 1.451754,-0.371296 2.518492,-1.387212 3.021826,-2.877653 l 0.146116,-0.432522 0.01893,-10.905759 0.01893,-10.9062445 -3.270453,-3.2328804 -3.070285,-3.0345576 z"
         sodipodi:nodetypes="cccssccccsccccccc" /><path
         d="M 5.4848052,3.5502991 V 4.0913242 Q 5.3426481,3.9533076 4.9865653,3.9533076 q -0.028983,0.2760332 -0.028983,0.731488 0,0.9937195 0.1380166,1.1317361 H 4.2674988 q 0.1200744,-0.1200744 0.1200744,-1.1317361 0,-0.4554548 -0.024843,-0.731488 -0.3754052,0 -0.5134218,0.1380166 V 3.5502991 Z m 1.6589596,2.2662326 q 0.067628,-0.067628 0.067628,-0.2304877 0,-0.1311158 -0.073149,-0.4430333 Q 7.0664755,4.829713 6.9891862,4.4943327 l -0.08419,0.3229588 q -0.1435372,0.5493061 -0.1435372,0.8032567 0,0.1476777 0.048306,0.1959835 H 6.0920782 q 0.035884,-0.035884 0.035884,-0.1614794 0,-0.266372 -0.2015043,-1.0917113 Q 5.7249541,3.7366215 5.5400118,3.5489189 h 0.8267195 q -0.073149,0.07867 -0.073149,0.2401489 0,0.1090331 0.057967,0.3685044 0.059347,0.2594712 0.1131736,0.5451656 0.291215,-0.7328682 0.5189424,-1.8052572 0.2429092,1.072389 0.5327441,1.795596 0.051066,-0.2677522 0.1380166,-0.6403971 0.034504,-0.1504381 0.034504,-0.2608513 0,-0.1628596 -0.077289,-0.2429093 H 8.4383605 Q 8.2575588,3.7352414 8.0118892,4.7137791 7.8476495,5.3652174 7.8476495,5.6371102 q 0,0.1380166 0.041405,0.1794215 z m 2.1571994,0 H 8.4728646 Q 8.592939,5.6964573 8.592939,4.6847956 q 0,-1.0116617 -0.1200744,-1.1344965 H 9.3009642 Q 9.1629476,3.691076 9.1629476,4.6847956 q 0,0.9937195 0.1380166,1.1317361 z M 10.304345,3.5102743 q 0.761852,0.030364 0.761852,0.6749012 L 10.34161,4.2873078 q 0.117314,-0.2208266 0.117314,-0.2801737 0,-0.059347 -0.155959,-0.089711 H 10.17875 q -0.115934,0.012422 -0.157339,0.057967 -0.041405,0.044165 -0.041405,0.1393968 0,0.088331 0.070389,0.1380166 0.04969,0.030364 0.122834,0.08005 0.07453,0.049686 0.155959,0.1048926 0.08143,0.055207 0.160099,0.1117934 0.07867,0.056587 0.142157,0.1021323 0.06487,0.044165 0.100753,0.070388 0.03588,0.026223 0.03864,0.026223 0.311918,0.2235869 0.311918,0.531364 0,0.5644879 -0.778414,0.58243 H 10.18013 Q 9.3796339,5.8317136 9.3796339,5.1250686 L 10.119403,5.0077544 q -0.1462977,0.2608514 -0.1462977,0.3381407 0,0.00138 0,0.040025 0.00138,0.037265 0.2084047,0.060727 l 0.121455,0.00276 Q 10.534833,5.4287051 10.534833,5.2824075 10.519651,5.1802752 10.407858,5.0947049 10.213254,4.9497875 10.043494,4.8228122 9.8737333,4.6958369 9.7094935,4.5854236 9.4762455,4.4004814 9.4251793,4.1037457 q 0,-0.5727689 0.7521907,-0.5934714 z m 2.434613,0.040025 v 0.5410251 q -0.142157,-0.1380166 -0.49824,-0.1380166 -0.02898,0.2760332 -0.02898,0.731488 0,0.9937195 0.138016,1.1317361 h -0.828099 q 0.120074,-0.1200744 0.120074,-1.1317361 0,-0.4554548 -0.02484,-0.731488 -0.375405,0 -0.513422,0.1380166 V 3.5502991 Z m 1.522323,0 V 4.0913242 Q 14.123265,3.9533076 13.841711,3.9533076 h -0.33262 v 0.4844383 h 0.361603 q 0.215306,0 0.351943,-0.149058 V 4.9856718 Q 14.08738,4.837994 13.872074,4.837994 h -0.362983 v 0.5631078 q 0.05659,0 0.33262,0 0.277413,0 0.41957,-0.1421571 v 0.557587 h -1.431232 q 0.120074,-0.1200744 0.120074,-1.1317361 0,-1.0116617 -0.120074,-1.1344965 z m 0.829479,0.4030085 v 0.5037606 h 0.233248 q 0.110414,0 0.16424,-0.059347 0.05521,-0.059347 0.05521,-0.1780415 0,-0.1407769 -0.05245,-0.2028844 -0.05245,-0.063488 -0.167001,-0.063488 z m -0.574149,1.0047609 q 0.0028,-0.1269753 0.0028,-0.2732729 0,-1.0116617 -0.120075,-1.1358767 l 0.90953,0.00138 q 0.801876,0 0.801876,0.6072731 0,0.2222067 -0.07315,0.3712646 -0.07177,0.1476778 -0.376785,0.1794216 0.389207,0.3105374 0.389207,0.6376367 0,0.3257192 0.144917,0.4706366 h -0.803256 q 0.111793,-0.1117934 0.111793,-0.3422811 0,-0.071769 -0.02898,-0.2898349 -0.02898,-0.2180662 -0.383687,-0.3257192 l 0.0014,0.099372 q 0.01794,0.7411491 0.135256,0.8584632 h -0.8281 q 0.102132,-0.1021322 0.117314,-0.8584632 z"
         id="text2"
         style="font-size:2.82658px;font-family:'Witch Magic';-inkscape-font-specification:'Witch Magic';fill:#ffffff;stroke:#363d52;stroke-width:0.7;stroke-linecap:round;stroke-linejoin:round;paint-order:stroke markers fill"
         aria-label="Twister" /><g
         id="text3"><path
           style="-inkscape-font-specification:'Witch Magic';fill:#363d52;stroke-linecap:round;stroke-linejoin:round;paint-order:stroke markers fill"
           d="m 4.2617187,29.443359 -0.1425781,0.0039 a 0.48581508,0.48581508 0 0 0 -0.00977,0 c -0.4055609,0.01935 -0.7720234,0.111414 -1.0585937,0.349609 -0.073549,0.06113 -0.056444,0.176674 -0.1113282,0.253906 -0.047503,-0.06484 -0.028799,-0.164672 -0.089844,-0.21875 -0.2882768,-0.255375 -0.666958,-0.356503 -1.0820313,-0.373047 a 0.48581508,0.48581508 0 0 0 -0.019531,0 H 1.5742187 a 0.48581508,0.48581508 0 0 0 -0.011719,0 C 1.1585758,29.470102 0.79439736,29.550102 0.50390625,29.779297 0.21341514,30.008492 0.0625,30.386899 0.0625,30.753906 a 0.48581508,0.48581508 0 0 0 0.0058594,0.08203 c 0.05482227,0.318563 0.252895,0.585736 0.48046875,0.8125 l -0.13867187,0.02148 A 0.48581508,0.48581508 0 0 0 0,32.148437 c 0,0.41333 0.13369596,0.819282 0.4296875,1.091797 0.29599154,0.272516 0.6952138,0.383867 1.1308594,0.400391 a 0.48581508,0.48581508 0 0 0 0.017578,0 h 0.1699219 a 0.48581508,0.48581508 0 0 0 0.011719,0 c 0.4129443,-0.0095 0.7784842,-0.0839 1.0761719,-0.306641 0.079854,-0.05975 0.063147,-0.182401 0.1230469,-0.261718 0.043456,0.05711 0.025749,0.146852 0.080078,0.195312 0.28611,0.255204 0.6644163,0.356441 1.0761719,0.373047 a 0.48581508,0.48581508 0 0 0 0.019531,0 h 0.140625 a 0.48581508,0.48581508 0 0 0 0.011719,0 c 0.3463605,-0.008 0.6365833,-0.128416 0.9042968,-0.289063 A 0.48581508,0.48581508 0 0 0 5.53125,33.578125 h 1.1289062 a 0.48581508,0.48581508 0 0 0 0.1386719,-0.05664 0.48581508,0.48581508 0 0 0 0.085937,0.05664 h 1.0976563 a 0.48581508,0.48581508 0 0 0 0.1152344,-0.04883 0.48581508,0.48581508 0 0 0 0.072266,0.04883 h 1.1308594 a 0.48581508,0.48581508 0 0 0 0.1464843,-0.06055 0.48581508,0.48581508 0 0 0 0.091797,0.06055 H 10.669922 A 0.48581508,0.48581508 0 0 0 11.013672,32.75 c 0.123064,0.123066 0.03488,0.05395 0.0098,-0.105469 -0.01473,-0.09346 -0.02155,-0.278833 -0.03125,-0.43164 0.350045,-0.0262 0.692924,-0.07157 0.943359,-0.292969 0.182774,-0.161735 0.191643,-0.424221 0.255859,-0.658203 0.002,0.105927 0.0098,0.164006 0.0098,0.285156 0,0.450829 -0.01299,0.800002 -0.03711,1.027344 -0.01206,0.113671 -0.0285,0.198058 -0.03906,0.238281 -0.01056,0.04022 -0.03857,0.03076 0.05469,-0.0625 a 0.48581508,0.48581508 0 0 0 0.34375,0.828125 h 1.130859 A 0.48581508,0.48581508 0 0 0 13.998047,32.75 c 0.143277,0.143277 0.02532,0.02636 -0.002,-0.197266 -0.02727,-0.223626 -0.04492,-0.564831 -0.04492,-1.005859 0,-0.186726 0.01218,-0.287897 0.01758,-0.4375 a 0.48581508,0.48581508 0 0 0 0.703125,-0.371094 v -0.740234 a 0.48581508,0.48581508 0 0 0 -0.486328,-0.484375 h -2.232422 a 0.48581508,0.48581508 0 0 0 -0.251953,0.251953 C 11.427011,29.61711 11.133503,29.513672 10.78125,29.513672 l -1.2421875,-0.002 a 0.48581508,0.48581508 0 0 0 -0.09375,0.0625 0.48581508,0.48581508 0 0 0 -0.1445312,-0.06055 H 8.1699219 A 0.48581508,0.48581508 0 0 0 7.7617187,29.785156 C 7.4753174,29.609775 7.1511986,29.513884 6.7734375,29.513672 h -0.00195 L 5.53125,29.511719 A 0.48581508,0.48581508 0 0 0 5.2109375,29.722656 C 4.9369898,29.557228 4.6347099,29.445859 4.2792969,29.443359 a 0.48581508,0.48581508 0 0 0 -0.017578,0 z m 12.5078123,0.01563 c -0.403924,0.01112 -0.768102,0.09112 -1.058593,0.320313 -0.290492,0.229195 -0.441407,0.607602 -0.441407,0.974609 a 0.48581508,0.48581508 0 0 0 0.0078,0.08203 c 0.05481,0.318512 0.251001,0.58575 0.478515,0.8125 l -0.138671,0.02148 a 0.48581508,0.48581508 0 0 0 -0.410157,0.478515 c 0,0.413329 0.133697,0.819282 0.429688,1.091797 0.295991,0.272516 0.695214,0.383866 1.130859,0.400391 a 0.48581508,0.48581508 0 0 0 0.01953,0 h 0.167969 a 0.48581508,0.48581508 0 0 0 0.01172,0 c 0.358287,-0.0083 0.661831,-0.104952 0.935547,-0.265625 a 0.48581508,0.48581508 0 0 0 0.304687,0.203125 h 1.13086 A 0.48581508,0.48581508 0 0 0 19.681641,32.75 c 0.123064,0.123067 0.03488,0.05395 0.0098,-0.105469 -0.01473,-0.09346 -0.02155,-0.278833 -0.03125,-0.43164 0.24104,-0.01788 0.449647,-0.09896 0.648438,-0.201172 -0.0065,0.193147 -0.0083,0.436313 -0.02148,0.560547 -0.01206,0.113843 -0.02653,0.199915 -0.03711,0.240234 -0.01058,0.04032 -0.03873,0.03092 0.05469,-0.0625 a 0.48581508,0.48581508 0 0 0 0.34375,0.828125 h 1.869141 a 0.48581508,0.48581508 0 0 0 0.05078,-0.05078 0.48581508,0.48581508 0 0 0 0.07422,0.05078 h 1.130859 a 0.48581508,0.48581508 0 0 0 0.369141,-0.203125 0.48581508,0.48581508 0 0 0 0.304688,0.203125 h 1.130859 A 0.48581508,0.48581508 0 0 0 25.919922,32.75 c 0.143277,0.143277 0.02532,0.02636 -0.002,-0.197266 -0.02727,-0.223626 -0.04297,-0.564831 -0.04297,-1.005859 0,-0.186726 0.01218,-0.287897 0.01758,-0.4375 a 0.48581508,0.48581508 0 0 0 0.308594,0.05859 0.48581508,0.48581508 0 0 0 0.05273,0.0098 0.48581508,0.48581508 0 0 0 0.05859,-0.01172 0.48581508,0.48581508 0 0 0 0.320312,-0.06445 c 0.0047,0.151676 0.01563,0.256127 0.01563,0.445313 0,0.450829 -0.01494,0.800002 -0.03906,1.027344 -0.01206,0.113671 -0.02655,0.198058 -0.03711,0.238281 -0.01056,0.04022 -0.03857,0.03076 0.05469,-0.0625 a 0.48581508,0.48581508 0 0 0 0.34375,0.828125 h 1.130859 a 0.48581508,0.48581508 0 0 0 0.363282,-0.195313 0.48581508,0.48581508 0 0 0 0.291015,0.195313 h 1.955078 a 0.48581508,0.48581508 0 0 0 0.07617,-0.07422 0.48581508,0.48581508 0 0 0 0.111328,0.07422 h 1.13086 a 0.48581508,0.48581508 0 0 0 0.138672,-0.05664 0.48581508,0.48581508 0 0 0 0.08594,0.05664 h 1.097656 A 0.48581508,0.48581508 0 0 0 33.693359,32.75 c -0.0032,-0.0032 -0.05469,-0.07438 -0.05469,-0.298828 0,-0.278541 -0.247216,-0.479081 -0.40625,-0.710938 0.110712,-0.07558 0.272918,-0.05564 0.339844,-0.193359 0.108013,-0.220927 0.148437,-0.463843 0.148437,-0.71875 0,-0.383294 -0.158113,-0.777474 -0.464844,-1.009766 -0.306231,-0.231913 -0.68785,-0.304448 -1.113281,-0.304687 h -0.002 l -1.240234,-0.002 a 0.48581508,0.48581508 0 0 0 -0.115235,0.07617 0.48581508,0.48581508 0 0 0 -0.07422,-0.07422 h -1.955078 a 0.48581508,0.48581508 0 0 0 -0.07422,0.04883 0.48581508,0.48581508 0 0 0 -0.04883,-0.04883 h -2.234375 a 0.48581508,0.48581508 0 0 0 -0.144531,0.144531 0.48581508,0.48581508 0 0 0 -0.144531,-0.144531 H 23.875 a 0.48581508,0.48581508 0 0 0 -0.0293,0.0293 0.48581508,0.48581508 0 0 0 -0.07227,-0.0293 h -1.130859 a 0.48581508,0.48581508 0 0 0 -0.439453,0.335937 0.48581508,0.48581508 0 0 0 -0.425781,-0.335937 h -1.128907 a 0.48581508,0.48581508 0 0 0 -0.349609,0.232422 c -0.259507,-0.123056 -0.524837,-0.232422 -0.849609,-0.232422 l -1.242188,-0.002 a 0.48581508,0.48581508 0 0 0 -0.36914,0.24414 c -0.257339,-0.155587 -0.532744,-0.283701 -0.863282,-0.296875 a 0.48581508,0.48581508 0 0 0 -0.01953,0 h -0.171875 a 0.48581508,0.48581508 0 0 0 -0.01367,0 z m 5.470703,0.59375 a 0.48581508,0.48581508 0 0 0 0.05469,0.285157 c -0.08917,-0.09122 -0.06151,-0.09774 -0.05078,-0.05664 0.01073,0.0411 0.02699,0.126177 0.03906,0.240234 0.02414,0.228114 0.03906,0.574562 0.03906,1.025391 0,0.176566 -0.01153,0.258478 -0.01563,0.402344 a 0.48581508,0.48581508 0 0 0 -0.132813,0.02734 c -0.02698,0.02698 -0.05764,0.021 -0.08008,0.0332 -0.006,-0.155501 -0.01758,-0.265569 -0.01758,-0.462891 0,-0.441027 0.01567,-0.781444 0.04297,-1.005859 0.0273,-0.224416 0.143045,-0.343056 0.0059,-0.203125 a 0.48581508,0.48581508 0 0 0 0.115234,-0.285157 z m -6.02539,0.19336 c -0.0017,0.0019 -2.42e-4,0.004 -0.002,0.0059 -5.45e-4,5.96e-4 -0.0014,-5.99e-4 -0.002,0 z m -5.521485,0.568359 -0.04492,0.04297 c 0.0064,-0.01454 0.0015,-0.0076 0.01758,-0.02734 0.01254,-0.01383 0.0138,-0.0062 0.02734,-0.01563 z m 8.666016,0 -0.04297,0.04297 c 0.0064,-0.01454 0.0015,-0.0076 0.01758,-0.02734 0.01174,-0.01295 0.01271,-0.0065 0.02539,-0.01563 z m 4.751953,0.287109 c 0.0047,0.151667 0.01367,0.256141 0.01367,0.445313 0,0.290557 -0.01475,0.461883 -0.02539,0.662109 -0.0126,-0.198754 -0.0293,-0.371807 -0.0293,-0.662109 0,-0.193535 0.01371,-0.287674 0.01953,-0.441406 a 0.48581508,0.48581508 0 0 0 0.02148,-0.0039 z m 4.304688,0.0078 a 0.48581508,0.48581508 0 0 0 0.002,0 c 0.0048,0.153567 0.01758,0.245131 0.01758,0.4375 0,0.201418 -0.0123,0.300306 -0.01758,0.458984 -0.0063,-0.158001 -0.01953,-0.25774 -0.01953,-0.458984 0,-0.186726 0.01218,-0.287897 0.01758,-0.4375 z m 0.984375,0.304687 a 0.48581508,0.48581508 0 0 0 0.07031,0.07031 0.48581508,0.48581508 0 0 0 -0.06445,0.0625 c 0,-0.05531 -0.0055,-0.08022 -0.0059,-0.132813 z m -19.216797,0.0059 a 0.48581508,0.48581508 0 0 0 0.08789,0.08984 0.48581508,0.48581508 0 0 0 -0.08398,0.08203 c 3.5e-5,-0.01567 0,-0.02902 0,-0.04492 0,-0.05285 -0.0036,-0.07659 -0.0039,-0.126953 z m 8.667968,0 a 0.48581508,0.48581508 0 0 0 0.08789,0.08984 0.48581508,0.48581508 0 0 0 -0.08203,0.08203 c 3.5e-5,-0.01568 0,-0.02902 0,-0.04492 0,-0.05287 -0.0055,-0.07656 -0.0059,-0.126953 z m 1.203125,0.0625 -0.0059,0.0039 c 4.83e-4,-5.18e-4 -4.8e-4,-0.0014 0,-0.002 0.0016,-0.0017 0.0043,-2.31e-4 0.0059,-0.002 z m -9.091796,0.738281 -0.002,0.05078 h -0.160157 c 0.06228,0 0.101566,-0.04701 0.16211,-0.05078 z m 8.667968,0.002 -0.002,0.04883 h -0.158203 c 0.06148,0 0.100366,-0.04515 0.160156,-0.04883 z"
           id="path3" /><path
           style="-inkscape-font-specification:'Witch Magic';fill:#ffffff;stroke-linecap:round;stroke-linejoin:round;paint-order:stroke markers fill"
           d="m 1.7482655,29.944087 q 1.0402262,0.04146 1.0402262,0.921505 l -0.9893456,0.139451 q 0.1601798,-0.301515 0.1601798,-0.382547 0,-0.08103 -0.2129449,-0.122491 H 1.5767789 q -0.1582953,0.01696 -0.2148293,0.07915 -0.056534,0.0603 -0.056534,0.190331 0,0.120606 0.096108,0.188447 0.067841,0.04146 0.1677176,0.109299 0.1017613,0.06784 0.2129449,0.14322 0.1111836,0.07538 0.2185983,0.152641 0.1074146,0.07726 0.1941001,0.139451 0.08857,0.0603 0.1375662,0.09611 0.048996,0.0358 0.052765,0.0358 0.4258897,0.305284 0.4258897,0.72552 0,0.770747 -1.0628398,0.795245 H 1.5786634 Q 0.48567207,33.113762 0.48567207,32.148915 l 1.01007473,-0.16018 q -0.1997536,0.356164 -0.1997536,0.461694 0,0.0019 0,0.05465 0.00188,0.05088 0.2845546,0.08292 l 0.1658332,0.0038 q 0.3165906,-0.02827 0.3165906,-0.22802 -0.020729,-0.139451 -0.173371,-0.256288 -0.26571,-0.197869 -0.4974995,-0.37124 Q 1.1603115,31.56288 0.93605987,31.412123 0.61758481,31.159604 0.5478595,30.754443 q 0,-0.782054 1.0270349,-0.810321 z m 2.3895052,0.527651 q -0.2581721,0.03204 -0.2581721,0.286439 v 1.590491 q 0,0.239328 0.2562876,0.275132 h 0.1375662 q 0.2789012,-0.02638 0.2789012,-0.275132 0,-0.220483 -0.2789012,-0.431543 l 1.0684932,-0.0075 v 0.346742 q 0,0.874393 -1.0666088,0.898891 h -0.141335 q -1.0289195,-0.0415 -1.0289195,-0.917773 v -1.451041 q 0,-0.804667 1.027035,-0.853664 l 0.1432195,-0.0038 q 1.0666088,0.0075 1.0666088,0.868739 v 0.303399 l -1.0684932,0.0075 q 0.2789012,-0.179024 0.2789012,-0.350511 0,-0.275132 -0.2770168,-0.290208 z m 2.3367404,0.07726 v 0.687831 h 0.318475 q 0.1507575,0 0.2242517,-0.08103 0.075379,-0.08103 0.075379,-0.243096 0,-0.192216 -0.07161,-0.277017 -0.07161,-0.08669 -0.2280206,-0.08669 z m -0.7839386,1.371893 q 0.00377,-0.173371 0.00377,-0.373125 0,-1.381315 -0.1639487,-1.550917 l 1.2418643,0.0019 q 1.0948758,0 1.0948758,0.829166 0,0.303399 -0.099877,0.506921 -0.097992,0.201639 -0.5144597,0.244981 0.5314199,0.424006 0.5314199,0.870624 0,0.444735 0.1978691,0.642604 H 6.8853251 q 0.1526418,-0.152642 0.1526418,-0.467348 0,-0.09799 -0.039574,-0.395738 -0.039574,-0.297746 -0.523882,-0.444735 l 0.00188,0.135682 q 0.024498,1.011959 0.1846779,1.172139 H 5.5303927 q 0.1394506,-0.139451 0.1601798,-1.172139 z m 3.61064,1.172139 H 8.1705318 q 0.1639487,-0.163949 0.1639487,-1.545264 0,-1.381315 -0.1639487,-1.549032 h 1.1306807 q -0.1884468,0.192216 -0.1884468,1.549032 0,1.356817 0.1884468,1.545264 z m 1.1815615,-2.549685 v 0.687831 l 0.318475,0.0057 q 0.150757,0 0.224251,-0.08103 0.07538,-0.08103 0.07538,-0.243096 0,-0.192216 -0.07161,-0.277017 -0.07161,-0.08669 -0.22802,-0.08669 z m -0.7839389,1.377546 q 0.00377,-0.173371 0.00377,-0.373125 0,-1.381315 -0.1639487,-1.550917 l 1.2418646,0.0019 q 1.094875,0 1.094875,0.829166 0,0.495615 -0.261941,0.727404 -0.260056,0.229905 -0.812205,0.229905 h -0.312822 l -0.0038,0.135682 q 0.0245,1.011959 0.184678,1.172139 H 9.5386553 Q 9.678106,32.953582 9.6988351,31.920894 Z m 4.4869179,-1.922157 v 0.738711 q -0.1941,-0.188447 -0.680293,-0.188447 -0.03957,0.376894 -0.03957,0.998768 0,1.356817 0.188447,1.545264 h -1.130681 q 0.163949,-0.163949 0.163949,-1.545264 0,-0.621874 -0.03392,-0.998768 -0.512575,0 -0.701022,0.188447 v -0.738711 z m 2.770167,-0.05465 q 1.040227,0.04146 1.040227,0.921505 l -0.989346,0.139451 q 0.16018,-0.301515 0.16018,-0.382547 0,-0.08103 -0.212945,-0.122491 h -0.169602 q -0.158295,0.01696 -0.214829,0.07915 -0.05653,0.0603 -0.05653,0.190331 0,0.120606 0.09611,0.188447 0.06784,0.04146 0.167718,0.109299 0.101761,0.06784 0.212945,0.14322 0.111183,0.07538 0.218598,0.152641 0.107415,0.07726 0.1941,0.139451 0.08857,0.0603 0.137566,0.09611 0.049,0.0358 0.05277,0.0358 0.425889,0.305284 0.425889,0.72552 0,0.770747 -1.06284,0.795245 h -0.169602 q -1.092991,-0.04146 -1.092991,-1.006305 l 1.010075,-0.16018 q -0.199754,0.356164 -0.199754,0.461694 0,0.0019 0,0.05465 0.0019,0.05088 0.284555,0.08292 l 0.165833,0.0038 q 0.316591,-0.02827 0.316591,-0.22802 -0.02073,-0.139451 -0.173371,-0.256288 -0.26571,-0.197869 -0.4975,-0.37124 -0.23179,-0.173371 -0.456041,-0.324128 -0.318475,-0.252519 -0.388201,-0.65768 0,-0.782054 1.027035,-0.810321 z m 2.195405,0.599261 v 0.687831 l 0.318475,0.0057 q 0.150758,0 0.224252,-0.08103 0.07538,-0.08103 0.07538,-0.243096 0,-0.192216 -0.07161,-0.277017 -0.07161,-0.08669 -0.228021,-0.08669 z m -0.783938,1.377546 q 0.0038,-0.173371 0.0038,-0.373125 0,-1.381315 -0.163948,-1.550917 l 1.241864,0.0019 q 1.094876,0 1.094876,0.829166 0,0.495615 -0.261941,0.727404 -0.260057,0.229905 -0.812206,0.229905 h -0.312821 l -0.0038,0.135682 q 0.0245,1.011959 0.184677,1.172139 h -1.13068 q 0.13945,-0.139451 0.16018,-1.172139 z m 3.262013,0.621874 h 0.346742 q 0.318475,0 0.540843,-0.222367 v 0.772632 h -1.869392 q 0.163948,-0.163949 0.163948,-1.547148 0,-1.383199 -0.163948,-1.547148 h 1.13068 q -0.188446,0.192216 -0.188446,1.549032 0,0.61999 0.03957,0.994999 z m 2.144525,0.550265 h -1.130681 q 0.163949,-0.163949 0.163949,-1.545264 0,-1.381315 -0.163949,-1.549032 h 1.130681 q -0.188447,0.192216 -0.188447,1.549032 0,1.356817 0.188447,1.545264 z m 2.334856,-3.094296 v 0.738711 q -0.1941,-0.188447 -0.680293,-0.188447 -0.03957,0.376894 -0.03957,0.998768 0,1.356817 0.188447,1.545264 H 24.44668 q 0.163949,-0.163949 0.163949,-1.545264 0,-0.621874 -0.03392,-0.998768 -0.512576,0 -0.701022,0.188447 v -0.738711 z m 2.523302,0 v 0.738711 q -0.1941,-0.188447 -0.680293,-0.188447 -0.03957,0.376894 -0.03957,0.998768 0,1.356817 0.188447,1.545264 h -1.13068 q 0.163948,-0.163949 0.163948,-1.545264 0,-0.621874 -0.03392,-0.998768 -0.512575,0 -0.701022,0.188447 v -0.738711 z m 2.078568,0 v 0.738711 q -0.188446,-0.188447 -0.572878,-0.188447 h -0.454156 v 0.661449 h 0.49373 q 0.293977,0 0.480539,-0.203523 v 0.951656 q -0.184677,-0.201638 -0.478654,-0.201638 h -0.495615 v 0.768863 q 0.07726,0 0.454156,0 0.378778,0 0.572878,-0.1941 v 0.761325 h -1.954193 q 0.163949,-0.163949 0.163949,-1.545264 0,-1.381315 -0.163949,-1.549032 z m 1.132565,0.550264 v 0.687831 h 0.318475 q 0.150757,0 0.224252,-0.08103 0.07538,-0.08103 0.07538,-0.243096 0,-0.192216 -0.07161,-0.277017 -0.07161,-0.08669 -0.228021,-0.08669 z m -0.783939,1.371893 q 0.0038,-0.173371 0.0038,-0.373125 0,-1.381315 -0.163948,-1.550917 l 1.241864,0.0019 q 1.094876,0 1.094876,0.829166 0,0.303399 -0.09988,0.506921 -0.09799,0.201639 -0.51446,0.244981 0.53142,0.424006 0.53142,0.870624 0,0.444735 0.197869,0.642604 h -1.09676 q 0.152642,-0.152642 0.152642,-0.467348 0,-0.09799 -0.03957,-0.395738 -0.03957,-0.297746 -0.523882,-0.444735 l 0.0019,0.135682 q 0.0245,1.011959 0.184678,1.172139 h -1.13068 q 0.13945,-0.139451 0.160179,-1.172139 z"
           id="path6" /></g><path
         style="fill:#363d52;fill-opacity:1;stroke:#212532;stroke-width:2;stroke-linecap:round;stroke-linejoin:round;stroke-dasharray:none;stroke-opacity:1;paint-order:stroke markers fill"
         d="m 26.056162,1.7565951 v 5.4974923 h 5.709746 z"
         id="path26"
         sodipodi:nodetypes="cccc" /><path
         d="M 4.2175403,13.408308 C 4.0540819,13.282808 3.9216875,13.02017 3.9216875,12.821413 4.3626029,12.038038 5.3646048,11.192386 6.0697559,10.47669 L 5.079488,9.4772108 C 4.079678,8.4681026 3.9216875,8.266744 3.9216875,8.0016024 c 0,-0.2296986 0.3640719,-0.5444868 0.6297351,-0.5444868 0.1989307,0 0.4238273,0.1927169 1.615117,1.3840067 0.9722284,0.9722262 1.3840078,1.4344567 1.3840078,1.5535787 0,0.315415 -0.2103426,0.574795 -1.4955393,1.844192 -1.0688488,1.055708 -1.3182924,1.26592 -1.4997982,1.263916 -0.1197433,-0.0012 -0.2716957,-0.04385 -0.3376696,-0.09451 z m 3.628861,0 C 7.5114067,13.151108 7.4714734,12.773292 7.7498592,12.494907 L 7.949171,12.295594 h 1.4158064 1.4158056 l 0.199313,0.199313 c 0.216814,0.216815 0.247879,0.39985 0.111363,0.656172 -0.176731,0.33182 -0.263246,0.349325 -1.7264827,0.349325 -0.9833783,0 -1.4342349,-0.02735 -1.518575,-0.0921 z"
         style="display:inline;fill:#ffffff;fill-opacity:1;stroke:#363d52;stroke-width:0.845375;stroke-dasharray:none;stroke-opacity:1;paint-order:markers stroke fill"
         id="path1-3"
         sodipodi:nodetypes="cscssssssccccscccscscc" /><path
         d="m 23.699684,28.093911 c -0.163457,-0.125499 -0.295854,-0.388137 -0.295854,-0.586895 0,-0.110103 0.355321,-0.525166 1.074035,-1.254628 L 25.5519,25.162292 24.561631,24.162813 c -0.999808,-1.009107 -1.157801,-1.210466 -1.157801,-1.475608 0,-0.229698 0.364073,-0.544486 0.629737,-0.544486 0.19893,0 0.423826,0.192715 1.615117,1.384007 0.972227,0.972225 1.053279,1.302165 1.053279,1.421286 0,0.315415 0.120385,0.707087 -1.164811,1.976485 -1.068849,1.055708 -1.318292,1.265919 -1.499798,1.263916 -0.119743,-0.0012 -0.271696,-0.04385 -0.33767,-0.09452 z m 3.628861,0 c -0.334994,-0.2572 -0.374928,-0.635016 -0.09654,-0.913401 l 0.199313,-0.199313 h 1.415806 1.415805 l 0.199314,0.199313 c 0.216814,0.216815 0.247878,0.39985 0.111363,0.656171 -0.17673,0.331822 -0.263245,0.349327 -1.726481,0.349327 -0.983378,0 -1.434237,-0.02735 -1.518575,-0.0921 z"
         style="display:inline;fill:#ffffff;fill-opacity:1;stroke:#414042;stroke-width:0.845375;stroke-linecap:square;stroke-linejoin:miter;stroke-dasharray:none;stroke-dashoffset:0;stroke-opacity:1;paint-order:markers stroke fill"
         id="path1-3-6"
         sodipodi:nodetypes="csscsssssscccsscccsssss" /><path
         style="fill:#000000"
         id="path2"
         d="" /><g
         id="path10"><path
           style="fill:#414042;fill-opacity:1;stroke-linecap:square;stroke-linejoin:round;stroke-miterlimit:222;paint-order:markers stroke fill"
           d="m 23.013672,8.6582031 c -1.2e-4,0 -0.214661,0.021449 -0.214844,0.021484 -1.82e-4,3.52e-5 -0.07412,0.016689 -0.09766,0.023437 -0.04707,0.013496 -0.07037,0.021916 -0.08984,0.029297 -0.03895,0.014762 -0.05745,0.022604 -0.07227,0.029297 -0.02963,0.013385 -0.04433,0.021193 -0.06055,0.029297 -0.03244,0.016208 -0.06289,0.032335 -0.101563,0.052734 -0.07734,0.040799 -0.182015,0.097737 -0.322266,0.1738281 -0.280501,0.1521823 -0.697492,0.3808048 -1.265625,0.6933594 -1.136265,0.6251094 -2.873747,1.5840994 -5.300781,2.9277344 l -3.558593,1.970703 c -0.357272,0.197284 -0.579922,0.572352 -0.582032,0.980469 l -0.0098,2.3125 c -0.0029,0.638465 -0.0039,1.21846 -0.002,1.642578 9.7e-4,0.212059 0.0018,0.383702 0.0039,0.509765 0.0011,0.06303 0.004,0.112525 0.0059,0.160157 9.38e-4,0.02382 4.91e-4,0.04514 0.0039,0.08594 0.0017,0.0204 0.0024,0.04001 0.01367,0.105469 0.0056,0.03273 0.0467,0.181136 0.04687,0.181641 8.8e-5,2.52e-4 0.14249,0.277217 0.142578,0.277343 4.5e-5,6.4e-5 0.269487,0.271453 0.269532,0.271485 4.4e-5,3.1e-5 0.652299,0.208984 0.652343,0.208984 1.8e-4,0 -0.171156,-0.01294 -0.197265,-0.01758 -0.02611,-0.0046 -0.03724,-0.0076 -0.04687,-0.0098 -0.01926,-0.0043 -0.02492,-0.0067 -0.0293,-0.0078 0.0094,0.0026 0.0293,0.0096 0.05664,0.01758 0.05641,0.01648 0.141571,0.04099 0.246093,0.07227 0.209045,0.06255 0.496553,0.148471 0.810547,0.24414 l 0.111328,0.0332 c -0.22126,0.225659 -0.222363,0.227819 -0.451172,0.460938 -2.800499,2.853267 -3.3989405,3.464148 -3.7363277,3.871094 -2.2e-6,0.0013 -2.2e-6,0.0026 0,0.0039 l -0.00195,-0.0039 c -0.070634,0.08538 -0.1357919,0.153769 -0.2207031,0.367187 -0.042456,0.106709 -0.1386228,0.243471 -0.064453,0.642578 0.018542,0.09978 0.1206008,0.338947 0.1210937,0.339844 4.929e-4,8.97e-4 0.2902398,0.343137 0.2910157,0.34375 7.758e-4,6.13e-4 0.3817474,0.196951 0.3828125,0.197266 0.00106,3.14e-4 0.231941,0.04687 0.3222649,0.04687 1.75e-4,0 0.336364,-0.05007 0.376954,-0.06445 0.04059,-0.01438 0.0577,-0.023 0.07226,-0.0293 0.02913,-0.01258 0.04176,-0.01811 0.05274,-0.02344 0.02195,-0.01065 0.03403,-0.01774 0.04883,-0.02539 0.0296,-0.01531 0.06251,-0.03276 0.103515,-0.05469 0.08202,-0.04386 0.194768,-0.105721 0.337891,-0.183594 0.286246,-0.155744 0.690629,-0.375319 1.173828,-0.640625 0.966397,-0.530611 2.249556,-1.23835 3.533203,-1.947265 1.283647,-0.708915 2.566707,-1.420172 3.533203,-1.957032 0.483248,-0.26843 0.887551,-0.491903 1.173828,-0.652343 0.143139,-0.08022 0.256037,-0.14477 0.337891,-0.191407 0.04093,-0.02332 0.07467,-0.04165 0.103516,-0.05859 0.01442,-0.0085 0.02558,-0.01537 0.04492,-0.02734 0.0097,-0.006 0.0212,-0.01271 0.04297,-0.02734 0.01089,-0.0073 0.02413,-0.01666 0.04883,-0.03516 0.0247,-0.01849 0.156072,-0.142383 0.15625,-0.142578 1.27e-4,-1.39e-4 0.183467,-0.27122 0.183594,-0.271485 1.27e-4,-2.64e-4 0.04553,-0.104806 0.05664,-0.138672 0.02223,-0.06773 0.02942,-0.102423 0.03516,-0.130859 0.01148,-0.05687 0.01305,-0.08319 0.01563,-0.105469 0.0052,-0.04455 0.0061,-0.06897 0.0078,-0.0957 0.0034,-0.05348 0.0074,-0.105817 0.0098,-0.171875 0.0047,-0.132116 0.0077,-0.308561 0.01172,-0.523437 0.0081,-0.429752 0.01551,-1.01208 0.01953,-1.648438 l 0.01367,-2.298828 c 0.0029,-0.49767 -0.320992,-0.938313 -0.796875,-1.083984 l -1.181641,-0.363281 -0.09375,-0.0293 c 0.253278,-0.259172 0.427697,-0.439379 0.695313,-0.712891 1.006855,-1.02904 1.918274,-1.965361 2.578125,-2.644531 0.329925,-0.339586 0.596156,-0.61428 0.78125,-0.806641 0.09255,-0.09618 0.164881,-0.171624 0.216797,-0.226562 0.02596,-0.02747 0.04733,-0.04919 0.06836,-0.07227 0.01051,-0.01154 0.01919,-0.021 0.04102,-0.04687 0.01091,-0.01294 0.02098,-0.0223 0.06055,-0.07813 0.0099,-0.01396 0.03897,-0.05844 0.03906,-0.05859 9.5e-5,-1.53e-4 0.07417,-0.140522 0.07422,-0.140625 4.5e-5,-1.02e-4 0.0879,-0.5644015 0.08789,-0.5644528 C 23.939709,8.9179847 23.885694,8.8888246 23.013672,8.6582031 Z m -6.074219,5.7539059 c -0.316469,0.324408 -0.725861,0.742228 -0.982422,1.00586 -0.341872,0.351294 -0.621951,0.64042 -0.822265,0.847656 -0.100157,0.103618 -0.181603,0.186707 -0.240235,0.248047 -0.05863,0.06134 -0.01443,8.8e-4 -0.15039,0.166015 -0.03782,0.04594 -0.105556,0.106997 -0.203125,0.300782 -0.09757,0.193784 -0.166958,0.595821 -0.0918,0.875 0.150321,0.558358 0.31734,0.576984 0.4375,0.710937 l 0.15625,0.173828 c 0.07604,0.04656 0.157337,0.08393 0.242187,0.111328 -0.205021,0.203349 -0.363749,0.365331 -0.568359,0.564454 l -0.236328,0.230468 -0.509766,-0.15625 c -0.146859,-0.04475 -0.25033,-0.07575 -0.380859,-0.115234 -0.0013,-0.401019 -0.0026,-0.891792 0,-1.462891 l 0.0078,-1.65039 2.980469,-1.650391 c 0.165439,-0.09159 0.202273,-0.111181 0.361328,-0.199219 z m 1.453125,2.634766 0.53125,0.162109 0.380859,0.117188 -0.0098,1.460937 c -0.004,0.628609 -0.0098,1.203464 -0.01758,1.619141 -4.09e-4,0.02171 -0.0015,0.02995 -0.002,0.05078 -0.276211,0.154592 -0.626844,0.350455 -1.06836,0.595703 -0.606411,0.336844 -1.441356,0.797388 -2.220703,1.228516 0.788361,-0.80457 1.868362,-1.90376 2.005859,-2.048828 l 0.277344,-0.291016 c 0.40776,-0.43051 0.412044,-1.103394 0.0098,-1.539062 l -0.191406,-0.207032 c -0.07738,-0.08383 -0.150585,-0.157118 -0.234375,-0.230468 -0.0419,-0.03667 -0.08464,-0.0733 -0.15625,-0.123047 -0.0129,-0.009 -0.04078,-0.0229 -0.05664,-0.0332 l 0.136719,-0.138672 z"
           id="path4"
           sodipodi:nodetypes="csssssssscccccccscsssscccccccccccssssssscscssssssscsccsscscscccccccssssscssssccssssscccccccccccccccccscscccccccccc" /><path
           style="fill:#ffffff;fill-opacity:1;stroke-linecap:square;stroke-linejoin:round;stroke-miterlimit:222;paint-order:markers stroke fill"
           d="m 10.105014,26.728648 c 0.257008,-0.309995 0.873617,-0.947935 3.673221,-3.80029 1.716003,-1.748334 3.244372,-3.310008 3.396378,-3.470384 l 0.276372,-0.291594 -0.191644,-0.207639 c -0.105409,-0.114199 -0.212145,-0.20764 -0.237202,-0.20764 -0.02505,0 -0.21711,0.175548 -0.426787,0.390109 -0.209675,0.21456 -0.701673,0.701961 -1.093328,1.083112 l -0.712103,0.693004 -1.147234,-0.349546 c -0.63098,-0.19225 -1.156661,-0.349546 -1.168181,-0.349546 -0.01147,0 -0.01627,-1.040176 -0.01054,-2.311501 l 0.01041,-2.311501 3.558835,-1.970216 c 4.853314,-2.686853 6.948924,-3.8397395 6.979523,-3.8397395 0.01418,0 -1.620583,1.6826195 -3.632783,3.7391555 -2.012205,2.056536 -3.707198,3.798247 -3.766657,3.870465 -0.121722,0.147848 -0.117934,0.16191 0.112852,0.41919 l 0.155385,0.173219 1.094449,-1.108619 1.094447,-1.10862 1.183042,0.36225 1.183044,0.362249 -0.01441,2.299938 c -0.008,1.264966 -0.02769,2.314463 -0.04393,2.332217 -0.04569,0.04997 -10.264761,5.693623 -10.309565,5.693623 -0.02177,0 -0.0053,-0.04126 0.03643,-0.0917 z"
           id="path5" /></g></g></g></svg>
