<?xml version="1.0" encoding="UTF-8" standalone="no"?>
<!-- Uploaded to: SVG Repo, www.svgrepo.com, Generator: SVG Repo Mixer Tools -->

<svg
   width="16"
   height="16"
   viewBox="0 0 0.32 0.32"
   fill="#000000"
   class="bi bi-pin-angle"
   version="1.1"
   id="svg1"
   sodipodi:docname="pin.svg"
   inkscape:version="1.4 (86a8ad7, 2024-10-11)"
   xmlns:inkscape="http://www.inkscape.org/namespaces/inkscape"
   xmlns:sodipodi="http://sodipodi.sourceforge.net/DTD/sodipodi-0.dtd"
   xmlns="http://www.w3.org/2000/svg"
   xmlns:svg="http://www.w3.org/2000/svg">
  <defs
     id="defs1" />
  <sodipodi:namedview
     id="namedview1"
     pagecolor="#505050"
     bordercolor="#eeeeee"
     borderopacity="1"
     inkscape:showpageshadow="0"
     inkscape:pageopacity="0"
     inkscape:pagecheckerboard="0"
     inkscape:deskcolor="#505050"
     inkscape:zoom="22.627417"
     inkscape:cx="9.1039998"
     inkscape:cy="11.777747"
     inkscape:window-width="1825"
     inkscape:window-height="1046"
     inkscape:window-x="84"
     inkscape:window-y="-11"
     inkscape:window-maximized="1"
     inkscape:current-layer="svg1" />
  <path
     d="m 0.1940456,0.00154404 c 0.003023,-5.28e-6 0.005924,0.0011914 0.008064,0.00332643 L 0.31486466,0.1176257 c 0.004447,0.004448 0.004447,0.0116575 0,0.0161051 -0.0109328,0.0109329 -0.02442,0.013394 -0.0342365,0.013394 -0.004032,0 -0.007631,-4.0973e-4 -0.0104794,-8.8737e-4 l -0.0713879,0.0713879 c 0.001879,0.007572 0.003099,0.0152924 0.003645,0.0230749 0.001049,0.0159909 -7.2813e-4,0.0384279 -0.0164008,0.0540998 -0.004448,0.004446 -0.011657,0.004446 -0.0161046,0 l -0.0644414,-0.0644197 -0.0724823,0.0724823 c -0.004442,0.004442 -0.0277677,0.0205469 -0.0322095967,0.0161052 C -0.00367481,0.31452583 0.01242979,0.29117753 0.01687179,0.28675853 l 0.0724823,-0.0724828 -0.0644186,-0.0644414 c -0.004447,-0.004448 -0.004447,-0.0116575 0,-0.0161051 0.015672,-0.0156712 0.038109,-0.0174705 0.0540998,-0.0164017 0.007783,5.4545e-4 0.0155032,0.001765 0.0230749,0.003645 l 0.0713889,-0.07136622 c -5.9575e-4,-0.003469 -9.0041e-4,-0.0069817 -9.1079e-4,-0.01050143 0,-0.0097954 0.00246,-0.02328011 0.0134168,-0.0342365 0.002135,-0.00212849 0.005026,-0.00332392 0.00804,-0.00332434 z m 0.002779,0.04810897 v -4.557e-5 z m 0,-4.557e-5 v 4.557e-5 c 0.001341,0.0040864 2.6639e-4,0.0085798 -0.002779,0.01161677 L 0.1135223,0.14177015 c -0.003051,0.003038 -0.007555,0.004096 -0.01164,0.002733 h -4.557e-5 l -3.184e-4,-9.114e-5 c -0.002167,-6.4878e-4 -0.004355,-0.001226 -0.00656,-0.00173 -0.00573,-0.001337 -0.0115569,-0.002221 -0.0174259,-0.002643 -0.009613,-6.3637e-4 -0.0190433,1.8269e-4 -0.0267652,0.003418 l 0.1255113,0.12548867 c 0.003212,-0.007746 0.004032,-0.0171518 0.003394,-0.0267652 -5.8029e-4,-0.008138 -0.002047,-0.0161888 -0.004374,-0.0240088 l -9.109e-5,-2.9501e-4 v -2.277e-5 c -0.001372,-0.004091 -3.1393e-4,-0.008607 0.002733,-0.0116629 l 0.0805456,-0.0805253 c 0.003169,-0.003188 0.007916,-0.004215 0.0121193,-0.00262 l 0.002187,5.0105e-4 c 0.001981,3.8632e-4 0.004738,7.7498e-4 0.007837,7.7498e-4 0.002596,0 0.005238,-2.5052e-4 0.007812,-9.1076e-4 l -0.0921411,-0.0921173 c -6.6026e-4,0.0025739 -9.1079e-4,0.0052385 -9.1079e-4,0.0078123 1.095e-5,0.0035398 4.8566e-4,0.0070629 0.001412,0.01047936 z"
     id="path1"
     style="fill:#bfbfbf;fill-opacity:1;stroke:none;stroke-width:0.02;stroke-dasharray:none;stroke-opacity:1"
     sodipodi:nodetypes="ccccsccccccccccccccccccccccccccccccccccccccccsccccc" />
  <path
     style="fill:none;fill-opacity:1;stroke:none;stroke-width:0.000662336;stroke-linecap:round;stroke-linejoin:round;stroke-opacity:1;paint-order:stroke markers fill"
     d="m 8.847733e-4,0.31609514 c 1.114e-5,-0.003708 0.003321997,-0.0107257 0.009189997,-0.0194771 0.003542,-0.005283 0.0139747,-0.0162761 0.0420059,-0.0442638 0.0205112,-0.0204794 0.0372932,-0.0376333 0.0372932,-0.0381198 0,-4.864e-4 -0.0147728,-0.0156533 -0.0328285,-0.0337042 -0.0180556,-0.0180508 -0.0332812,-0.0339128 -0.0338346,-0.0352487 -0.001553,-0.003748 -2.8146e-4,-0.008159 0.003395,-0.0117817 0.014436,-0.0142218 0.0372471,-0.018876 0.0676725,-0.0138072 l 0.008909,0.001484 0.0353653,-0.03535721 0.0353653,-0.03535722 -6.22e-5,-0.0097732 c -6.815e-5,-0.01083383 0.001188,-0.01658836 0.005478,-0.02508566 0.005492,-0.01087891 0.0128671,-0.0156869672 0.0193468,-0.01261216 0.001639,7.7775e-4 0.0287382,0.02724195 0.0608717,0.05944521 0.0474202,0.04752318 0.0580139,0.05856399 0.0584493,0.06091577 8.396e-4,0.004536 -0.001564,0.00924 -0.006739,0.0131897 -0.009699,0.007402 -0.0180834,0.009959 -0.0318805,0.009722 l -0.009215,-1.582e-4 -0.0356682,0.0356603 -0.0356682,0.0356602 0.001711,0.008481 c 0.002269,0.01125 0.002436,0.0311233 3.406e-4,0.0404626 -0.003012,0.0134196 -0.0125061,0.0283783 -0.0194712,0.030677 -0.002202,7.268e-4 -0.003822,7.44e-4 -0.005886,6.2e-5 -0.001953,-6.438e-4 -0.013168,-0.011262 -0.0357015,-0.0338015 -0.0180695,-0.0180743 -0.0332439,-0.0328624 -0.0337209,-0.0328624 -4.7696e-4,0 -0.017828,0.0169032 -0.0385579,0.0375626 -0.0228158,0.0227382 -0.0398392,0.0389953 -0.0431347,0.0411928 -0.008274,0.005518 -0.0170129,0.009733 -0.0201854,0.009738 -0.002631,3.96e-6 -0.002846997,-2.122e-4 -0.002839337,-0.002843 z M 0.17776183,0.2663091 c 5.1564e-4,-0.001479 0.001405,-0.006032 0.001977,-0.010117 0.001211,-0.008655 9.44e-5,-0.0221019 -0.002762,-0.0332703 -0.003305,-0.0129211 -0.007375,-0.00738 0.0409353,-0.0557275 0.0234676,-0.0234857 0.0438048,-0.043172 0.0451936,-0.0437473 0.001932,-8.0026e-4 0.003554,-8.085e-4 0.006905,-3.52e-5 0.005009,0.001156 0.017943,0.001365 0.0186011,3.001e-4 5.964e-4,-9.65e-4 -0.0918149,-0.09327603 -0.0925957,-0.09249522 -9.7106e-4,9.7106e-4 -7.2422e-4,0.01402934 3.455e-4,0.0182776 7.0182e-4,0.0027872 7.0196e-4,0.0046268 4.7e-7,0.0067523 -0.001355,0.0041058 -0.0844391,0.08708087 -0.088087,0.08797146 -0.001631,3.9815e-4 -0.005466,-6.756e-5 -0.0105146,-0.001277 -0.0112791,-0.002702 -0.0225878,-0.003914 -0.0307569,-0.003297 -0.007074,5.3422e-4 -0.0161823,0.002711 -0.0161823,0.003868 0,7.8118e-4 0.12464918,0.12548637 0.12543001,0.12548637 3.1556e-4,0 9.9564e-4,-0.00121 0.001511,-0.002689 z"
     id="path2" />
  <path
     style="fill:#ffffff;fill-opacity:1;stroke:none;stroke-width:0.000468342;stroke-linecap:round;stroke-linejoin:round;stroke-opacity:1;paint-order:stroke markers fill"
     d="m 0.11415736,0.206175 c -0.034162,-0.0341689 -0.0621128,-0.0623141 -0.0621128,-0.0625448 0,-7.0156e-4 0.00618,-0.002251 0.0120818,-0.00303 0.009153,-0.001207 0.0197559,-1.984e-4 0.0338084,0.003217 0.006898,0.001677 0.008099,0.00181 0.0105328,0.001172 0.002495,-6.5429e-4 0.006632,-0.004598 0.0450708,-0.0429603 0.0262861,-0.02623378 0.0426619,-0.04303155 0.0432156,-0.04432914 0.001115,-0.0026127 0.001101,-0.0055361 -5.021e-5,-0.01030228 -9.2315e-4,-0.0038232 -0.001162,-0.01217371 -4.0233e-4,-0.01409058 3.3736e-4,-8.5174e-4 0.0100126,0.0085063 0.0458695,0.0443657 0.0405222,0.04052506 0.0452841,0.0454874 0.0439837,0.04583553 -0.002574,6.8916e-4 -0.0100197,4.1518e-4 -0.0138499,-5.0966e-4 -0.004981,-0.001203 -0.007569,-0.001142 -0.0105328,2.464e-4 -0.001689,7.9112e-4 -0.0158353,0.0145533 -0.0444084,0.043202 -0.038066,0.0381668 -0.0419964,0.0422942 -0.0426505,0.0447878 -6.383e-4,0.002434 -5.047e-4,0.003634 0.001172,0.0105328 0.002317,0.009532 0.003039,0.0140173 0.003546,0.0220358 4.3796e-4,0.006917 -4.298e-4,0.0156764 -0.002081,0.0210097 l -0.00108,0.003487 z"
     id="path4" />
</svg>
