<?xml version="1.0" encoding="UTF-8" standalone="no"?>
<!-- Created with Inkscape (http://www.inkscape.org/) -->

<svg
   width="128"
   height="128"
   viewBox="0 0 33.866666 33.866666"
   version="1.1"
   id="svg1"
   xml:space="preserve"
   inkscape:version="1.4 (86a8ad7, 2024-10-11)"
   sodipodi:docname="plus_row.svg"
   xmlns:inkscape="http://www.inkscape.org/namespaces/inkscape"
   xmlns:sodipodi="http://sodipodi.sourceforge.net/DTD/sodipodi-0.dtd"
   xmlns="http://www.w3.org/2000/svg"
   xmlns:svg="http://www.w3.org/2000/svg"><sodipodi:namedview
     id="namedview1"
     pagecolor="#505050"
     bordercolor="#eeeeee"
     borderopacity="1"
     inkscape:showpageshadow="0"
     inkscape:pageopacity="0"
     inkscape:pagecheckerboard="0"
     inkscape:deskcolor="#505050"
     inkscape:document-units="mm"
     inkscape:zoom="2.8756734"
     inkscape:cx="50.944589"
     inkscape:cy="89.544244"
     inkscape:window-width="1803"
     inkscape:window-height="1046"
     inkscape:window-x="106"
     inkscape:window-y="-11"
     inkscape:window-maximized="1"
     inkscape:current-layer="layer1" /><defs
     id="defs1" /><g
     inkscape:label="Capa 1"
     inkscape:groupmode="layer"
     id="layer1"><path
       style="fill:#00cccc;fill-opacity:1;stroke:none;stroke-width:0.988482;stroke-dasharray:none;stroke-opacity:1"
       d="M 0.75775301,16.20492 C 0.8945574,15.980569 1.1973461,15.730474 1.4306169,15.649156 1.7365614,15.542503 6.0591616,15.501304 16.943127,15.501304 c 16.254612,0 15.689359,-0.02338 16.174412,0.669123 0.273543,0.390539 0.273543,1.148111 0,1.53865 -0.485083,0.692551 0.08213,0.669119 -16.198126,0.669119 -16.54951947,0 -15.7908994,0.03593 -16.20653607,-0.767808 C 0.44270362,17.087926 0.45504728,16.701341 0.75775301,16.20492 Z M 11.454897,26.463052 c 0.258919,-0.417352 0.68252,-0.630854 1.253402,-0.631724 0.357576,-4.94e-4 0.576643,0.166826 1.497614,1.144217 0.593325,0.629673 1.078802,1.188995 1.078838,1.242937 3.4e-5,0.05394 0.05891,0.09808 0.13083,0.09808 0.08381,0 0.130766,-1.214622 0.130766,-3.382332 0,-3.193068 0.01473,-3.401079 0.263584,-3.717418 0.390604,-0.496573 1.041257,-0.674891 1.604247,-0.439657 0.86717,0.362323 0.878226,0.415177 0.878928,4.20123 l 4.94e-4,3.40356 1.208972,-1.2761 c 1.151898,-1.215852 1.234574,-1.276046 1.75119,-1.274989 0.456283,9.89e-4 0.606542,0.07437 0.948068,0.463351 0.570794,0.6501 0.548142,1.171653 -0.08454,1.946524 -1.064585,1.303862 -4.299797,4.762574 -4.583026,4.899641 -0.408287,0.197588 -0.652127,0.183369 -1.267461,-0.07391 -0.389274,-0.162763 -1.013155,-0.769785 -2.42058,-2.355196 C 12.803354,29.53651 11.788268,28.361259 11.590482,28.099593 11.178361,27.554367 11.13112,26.984734 11.45476,26.463053 Z M 11.852155,5.6387719 c 1.064585,-1.3038585 4.2998,-4.76257578 4.58303,-4.8996436 0.870902,-0.42146391 1.349886,-0.0757078 3.88419,2.8038383 2.168501,2.4639109 2.224005,2.5415661 2.261755,3.1644726 0.03272,0.5403486 -0.013,0.6902816 -0.29743,0.9747023 C 21.904796,8.0610513 21.433245,8.1912838 20.928744,8.0563609 20.733786,8.0042185 20.122623,7.4512421 19.505177,6.7683297 L 18.423239,5.5716638 v 3.2036545 c 0,3.4383547 -0.06701,3.8679537 -0.669118,4.2896897 -0.390539,0.273543 -1.148111,0.273543 -1.53865,0 -0.602361,-0.421909 -0.669124,-0.850757 -0.669124,-4.2982302 v -3.21219 L 14.693994,6.5318947 C 14.225201,7.0694113 13.687656,7.6303203 13.499449,7.7783653 12.89196,8.2562171 11.89759,8.0505289 11.54812,7.3747286 11.233866,6.7670299 11.316586,6.2947185 11.852155,5.6387719 Z"
       id="path1" /></g></svg>
