<?xml version="1.0" encoding="UTF-8" standalone="no"?>
<!-- Created with Inkscape (http://www.inkscape.org/) -->

<svg
   width="32.032799"
   height="32.52734"
   viewBox="0 0 8.4753445 8.6061919"
   version="1.1"
   id="svg1"
   xml:space="preserve"
   inkscape:export-filename="sep_left.svg"
   inkscape:export-xdpi="96"
   inkscape:export-ydpi="96"
   xmlns:inkscape="http://www.inkscape.org/namespaces/inkscape"
   xmlns:sodipodi="http://sodipodi.sourceforge.net/DTD/sodipodi-0.dtd"
   xmlns="http://www.w3.org/2000/svg"
   xmlns:svg="http://www.w3.org/2000/svg"><sodipodi:namedview
     id="namedview1"
     pagecolor="#505050"
     bordercolor="#eeeeee"
     borderopacity="1"
     inkscape:showpageshadow="0"
     inkscape:pageopacity="0"
     inkscape:pagecheckerboard="0"
     inkscape:deskcolor="#505050"
     inkscape:document-units="mm"
     showguides="false"><inkscape:page
       x="0"
       y="0"
       width="8.4753447"
       height="8.6061916"
       id="page2"
       margin="0"
       bleed="0" /></sodipodi:namedview><defs
     id="defs1" /><g
     inkscape:label="Capa 1"
     inkscape:groupmode="layer"
     id="layer1"><g
       id="g9"
       style="fill:#84b8d3;fill-opacity:1;stroke:#000000;stroke-width:1.12937;stroke-opacity:1"
       transform="matrix(0,1.0495645,-0.74698268,0,117.95725,-103.97654)"><path
         style="display:inline;fill:#84b8d3;fill-opacity:1;stroke:#000000;stroke-width:4.51751;stroke-linecap:square;stroke-miterlimit:222;stroke-opacity:1;paint-order:markers stroke fill"
         d="m 389.81575,591.16994 c -0.002,-1.87146 -0.0395,-5.61322 -0.0825,-8.31503 -0.0871,-5.46872 -0.0618,-5.27544 -0.71227,-5.44766 -0.54122,-0.14329 -3.42685,-0.2145 -4.67888,-0.11546 -1.06557,0.0843 -1.1524,0.1057 -1.34735,0.33236 -0.41528,0.48279 -0.25605,1.17389 0.58065,2.52011 0.48456,0.77965 0.53548,0.90958 0.53548,1.36644 0,0.47359 -0.0478,0.5823 -0.77113,1.75567 l -0.77112,1.25081 -1.96417,-2.94225 c -2.11509,-3.16833 -3.80205,-5.80833 -3.89137,-6.08977 -0.076,-0.23945 0.69307,-1.50082 3.45547,-5.6674 1.24908,-1.88402 2.30049,-3.45706 2.33646,-3.49564 0.0718,-0.0771 1.29172,1.8065 1.51313,2.3364 0.27621,0.66107 0.23334,0.7995 -0.77937,2.51685 -0.47658,0.80818 -0.59411,1.553 -0.30197,1.91362 0.26111,0.32232 0.72261,0.37808 3.14838,0.38044 2.40813,0.002 3.14493,-0.0754 3.37841,-0.35625 0.20726,-0.24934 0.25216,-1.61982 0.32421,-9.89519 l 0.0611,-7.01082 h 1.21875 1.21876 v 19.18271 19.1827 h -1.23318 -1.23317 z"
         id="path8"
         transform="scale(0.26458333)" /><path
         style="display:inline;fill:#84b8d3;fill-opacity:1;stroke:#000000;stroke-width:4.51751;stroke-linecap:square;stroke-miterlimit:222;stroke-opacity:1;paint-order:markers stroke fill"
         d="m 400.69022,575.38988 v -19.18271 h 1.23317 1.23318 v 19.18271 19.1827 h -1.23318 -1.23317 z"
         id="path9"
         transform="scale(0.26458333)" /></g></g></svg>
