<?xml version="1.0" encoding="UTF-8" standalone="no"?>
<!-- Created with Inkscape (http://www.inkscape.org/) -->

<svg
   width="16"
   height="16"
   viewBox="0 0 4.2333333 4.2333332"
   version="1.1"
   id="svg1"
   xml:space="preserve"
   inkscape:version="1.4 (86a8ad7, 2024-10-11)"
   sodipodi:docname="shortcut.svg"
   xmlns:inkscape="http://www.inkscape.org/namespaces/inkscape"
   xmlns:sodipodi="http://sodipodi.sourceforge.net/DTD/sodipodi-0.dtd"
   xmlns="http://www.w3.org/2000/svg"
   xmlns:svg="http://www.w3.org/2000/svg"><sodipodi:namedview
     id="namedview1"
     pagecolor="#505050"
     bordercolor="#eeeeee"
     borderopacity="1"
     inkscape:showpageshadow="0"
     inkscape:pageopacity="0"
     inkscape:pagecheckerboard="0"
     inkscape:deskcolor="#505050"
     inkscape:document-units="mm"
     inkscape:zoom="10.94736"
     inkscape:cx="8.8149107"
     inkscape:cy="15.391839"
     inkscape:window-width="1147"
     inkscape:window-height="755"
     inkscape:window-x="-56"
     inkscape:window-y="124"
     inkscape:window-maximized="0"
     inkscape:current-layer="g3" /><defs
     id="defs1" /><g
     inkscape:label="Capa 1"
     inkscape:groupmode="layer"
     id="layer1"><g
       id="g2"
       transform="scale(0.26666667)"
       style="display:inline;stroke-width:3.75"><path
         style="fill:#b2b2b2;fill-opacity:1;stroke-width:3.75"
         d="m 0.65589004,15.219118 c -0.87452007,-0.874521 -0.87452007,-13.6887153 0,-14.56323571 0.87452006,-0.87450973 13.68870996,-0.87450973 14.56321996,0 0.87452,0.87452041 0.87452,13.68871471 0,14.56323571 -0.87451,0.87451 -13.6886999,0.87451 -14.56321996,0 z"
         id="path1"
         sodipodi:nodetypes="ccssc" /><g
         id="g3"
         transform="translate(-33.35279,-9.4257885)"><path
           style="fill:none;fill-opacity:1;stroke:none;stroke-width:0.188976;stroke-linecap:round;stroke-linejoin:round;stroke-miterlimit:222;stroke-dasharray:none;stroke-opacity:1;paint-order:markers fill stroke"
           d="M 10.633145,7.7996359 C 9.8252059,4.1877286 9.7704552,3.9844154 9.3259591,2.945484 L 9.0800562,2.3707293 9.3585682,2.1235714 C 9.5117499,1.9876347 9.801299,1.7957483 10.002011,1.6971574 10.344108,1.529117 10.41948,1.5179011 11.206631,1.5179011 c 0.795852,0 0.859923,0.00983 1.22724,0.1882832 0.518652,0.2519774 1.178388,0.9228638 1.449923,1.4744291 0.206739,0.4199465 0.207378,0.4243553 0.186158,1.2847904 -0.03044,1.2341322 -0.05496,1.2761891 -1.765265,3.0272143 -0.746032,0.7637949 -1.371236,1.3960782 -1.389342,1.4050739 -0.01811,0.009 -0.145096,-0.4851296 -0.2822,-1.0980561 z"
           id="path10"
           transform="matrix(0.99218749,0,0,0.99218749,33.35279,9.4257885)" /><path
           style="fill:#e6e6e6;fill-opacity:1;stroke:none;stroke-width:0.1875;stroke-linecap:round;stroke-linejoin:round;stroke-miterlimit:222;stroke-dasharray:none;stroke-opacity:1;paint-order:markers fill stroke"
           d="m 38.913456,20.446846 c -1.643248,-1.938805 -3.391025,-3.898785 -3.56358,-5.148009 -0.172555,-1.249224 0.832037,-3.113573 1.570026,-3.537845 0.737989,-0.424272 0.234896,-0.230759 1.088646,-0.262057 0.85375,-0.0313 1.59998,0.329656 2.484401,1.318344 0.884421,0.988688 1.080399,0.541885 1.714825,-0.15852 0.634426,-0.700405 0.891531,-0.828123 1.052378,-0.920855 0.160846,-0.09273 0.245301,-0.21032 0.456832,-0.263376 0.211531,-0.05306 0.424773,0.01337 0.780799,0.02459 0.356025,0.01122 0.727089,-0.006 1.159013,0.239821 0.431924,0.245793 1.204307,1.144103 1.417464,1.669711 0.213156,0.525608 0.189823,0.195544 0.189878,1.430635 5.5e-5,1.235091 -1.14823,2.848994 -3.651229,5.783997 -2.502999,2.935003 -2.259843,2.628765 -2.281859,2.628765 -0.02202,0 -1.763762,-2.033773 -2.417594,-2.805204 -0.653832,-0.77143 1.643248,1.938808 0,3e-6 z"
           id="path11"
           sodipodi:nodetypes="zzzzzzzzzzzzzzzz" /></g></g></g></svg>
