<?xml version="1.0" encoding="UTF-8" standalone="no"?>
<!-- Uploaded to: SVG Repo, www.svgrepo.com, Generator: SVG Repo Mixer Tools -->

<svg
   fill="#000000"
   width="16"
   height="16"
   viewBox="0 0 0.64 0.64"
   id="icon"
   version="1.1"
   sodipodi:docname="split_cminus.svg"
   inkscape:version="1.4 (86a8ad7, 2024-10-11)"
   inkscape:export-filename="split_rminus.svg"
   inkscape:export-xdpi="96"
   inkscape:export-ydpi="96"
   xmlns:inkscape="http://www.inkscape.org/namespaces/inkscape"
   xmlns:sodipodi="http://sodipodi.sourceforge.net/DTD/sodipodi-0.dtd"
   xmlns="http://www.w3.org/2000/svg"
   xmlns:svg="http://www.w3.org/2000/svg"
   xmlns:rdf="http://www.w3.org/1999/02/22-rdf-syntax-ns#"
   xmlns:cc="http://creativecommons.org/ns#"
   xmlns:dc="http://purl.org/dc/elements/1.1/">
  <sodipodi:namedview
     id="namedview2"
     pagecolor="#505050"
     bordercolor="#eeeeee"
     borderopacity="1"
     inkscape:showpageshadow="0"
     inkscape:pageopacity="0"
     inkscape:pagecheckerboard="0"
     inkscape:deskcolor="#505050"
     inkscape:zoom="22.627417"
     inkscape:cx="4.5519999"
     inkscape:cy="8.1980193"
     inkscape:window-width="1803"
     inkscape:window-height="1046"
     inkscape:window-x="106"
     inkscape:window-y="-11"
     inkscape:window-maximized="1"
     inkscape:current-layer="icon">
    <inkscape:page
       x="0"
       y="0"
       width="0.63999999"
       height="0.63999999"
       id="page2"
       margin="0"
       bleed="0" />
  </sodipodi:namedview>
  <defs
     id="defs1">
    <style
       id="style1">.cls-1{fill:none;}</style>
  </defs>
  <title
     id="title1">split-screen</title>
  <path
     d="M 0.18934054,0.07454552 V 0.5654545 H 0.06233516 V 0.07454552 h 0.12700536 m 0,-0.0545455 H 0.06233516 C 0.0389541,0.02000002 0.02,0.04442088 0.02000003,0.07454552 V 0.5654545 C 0.02,0.59557913 0.03895409,0.61999999 0.06233515,0.62 h 0.12700534 c 0.0233811,5e-8 0.0423352,-0.0244208 0.0423352,-0.0545455 V 0.07454552 c 3e-8,-0.03012466 -0.0189541,-0.05454553 -0.0423352,-0.0545455 z"
     id="path1"
     style="fill:#00cccc;fill-opacity:1;stroke-width:0.0255591;stroke-dasharray:none"
     sodipodi:nodetypes="ccccccsccscccc" />
  <path
     d="M 0.57766491,0.07454552 V 0.5654545 H 0.45065951 V 0.07454552 h 0.12700538 m 0,-0.0545455 H 0.45065951 a 0.04233513,0.05454544 0 0 0 -0.0423351,0.0545455 V 0.5654545 A 0.04233513,0.05454544 0 0 0 0.45065951,0.62 H 0.57766488 A 0.04233513,0.05454544 0 0 0 0.61999998,0.5654545 V 0.07454552 a 0.04233513,0.05454544 0 0 0 -0.0423351,-0.0545455 z"
     id="path2"
     style="fill:#00cccc;stroke-width:0.0240271;fill-opacity:1" />
  <metadata
     id="metadata2">
    <rdf:RDF>
      <cc:Work
         rdf:about="">
        <dc:title>split-screen</dc:title>
      </cc:Work>
    </rdf:RDF>
  </metadata>
  <path
     style="fill:#ca0000;fill-opacity:1;stroke:#ff0000;stroke-width:0.115505;stroke-linejoin:bevel;stroke-dasharray:none;stroke-opacity:1;paint-order:stroke markers fill"
     d="M 0.5,0.32 H 0.14"
     id="path3"
     sodipodi:nodetypes="cc" />
</svg>
